<svg width="301" height="331" viewBox="0 0 301 331" fill="none" xmlns="http://www.w3.org/2000/svg">
<path d="M145.354 44.0117C166.616 44.281 186.762 49.1756 204.836 57.7334L178.369 95.3496C167.53 91.2459 155.777 89 143.5 89C89.0999 89 45 133.1 45 187.5C45 241.9 89.0999 286 143.5 286C197.9 286 242 241.9 242 187.5C242 175.305 239.782 163.628 235.73 152.849L265.045 111.186C278.953 133.29 287 159.455 287 187.5L286.988 189.354C285.995 267.753 222.134 331 143.5 331L141.646 330.988C63.8645 330.003 0.996819 267.135 0.0117188 189.354L0 187.5C0 108.247 64.2471 44 143.5 44L145.354 44.0117Z" fill="#2DCA54"/>
<path d="M110 188.291L138.553 223.292" stroke="#2DCA54" stroke-width="35" stroke-linecap="round"/>
<path d="M283 18L138.554 223.291" stroke="#2DCA54" stroke-width="35" stroke-linecap="round"/>
</svg>
